<svg width="624" height="601" version="1.1" xmlns="http://www.w3.org/2000/svg" desc="Created with ImageTracer.java version 1.1.2" ><path desc="l 0 p 0" fill="rgb(0,0,0)" stroke="rgb(0,0,0)" stroke-width="1" opacity="0.0" d="M 0.5 0.0 L 624.0 0.5 L 623.5 601.0 L 0.0 600.5 L 0.5 0.0 Z" /><path desc="l 6 p 0" fill="rgb(255,255,255)" stroke="rgb(255,255,255)" stroke-width="1" opacity="1.0" d="M 367.5 206.0 L 401.0 206.5 L 400.5 221.0 L 393.0 224.5 L 383.5 227.0 L 380.5 225.0 L 376.0 227.5 L 379.0 235.5 L 368.5 236.0 L 367.5 226.0 L 367.5 206.0 Z" /><path desc="l 3 p 0" fill="rgb(73,1,1)" stroke="rgb(73,1,1)" stroke-width="1" opacity="1.0" d="M 275.5 209.0 L 290.5 209.0 Q 298.4 208.1 302.0 211.5 L 298.5 212.0 Q 297.0 209.5 291.5 211.0 L 281.0 214.5 L 290.0 231.5 L 293.5 241.0 Q 295.8 243.7 301.5 243.0 L 313.5 243.0 Q 314.8 240.8 319.5 242.0 L 333.0 241.5 L 360.5 240.0 L 381.0 238.5 L 376.0 227.5 L 381.5 225.0 L 385.5 227.0 L 397.0 222.5 L 404.0 220.5 L 412.5 220.0 L 418.0 222.5 Q 420.1 224.9 425.5 224.0 L 431.0 219.5 L 432.5 216.0 L 439.0 218.5 L 436.5 223.0 L 435.0 226.5 L 435.0 232.5 L 439.0 244.5 L 436.5 245.0 L 435.5 242.0 L 433.5 245.0 L 432.0 244.5 L 431.0 241.5 L 430.0 233.5 L 431.0 229.5 L 429.5 229.0 L 425.0 231.5 L 426.0 236.5 L 424.0 241.5 L 419.5 248.0 L 408.5 255.0 L 404.0 248.5 L 415.0 239.5 L 416.0 236.5 L 406.5 245.0 L 399.0 251.5 L 399.5 260.0 L 401.0 268.5 L 400.0 268.5 L 397.5 253.0 L 394.0 256.5 L 394.0 258.5 L 398.5 273.0 L 408.5 271.0 L 417.5 270.0 L 422.5 271.0 Q 433.0 271.5 439.5 276.0 L 454.0 285.5 L 463.5 299.0 L 468.0 310.5 L 469.0 328.5 L 464.0 344.5 L 453.5 360.0 L 441.5 368.0 Q 430.0 376.5 408.5 375.0 Q 385.8 371.2 374.0 356.5 L 366.5 345.0 L 363.0 334.5 L 361.0 320.5 L 363.0 310.5 Q 364.6 300.1 370.0 293.5 L 379.5 283.0 L 391.0 275.5 L 387.5 267.0 L 338.5 317.0 L 334.0 320.5 L 336.0 324.5 L 338.0 331.5 L 339.0 336.5 L 337.0 336.5 L 332.0 343.5 Q 334.3 344.8 331.5 346.0 L 329.5 347.0 L 329.5 345.0 L 328.0 344.5 L 327.0 342.5 L 328.5 336.0 L 332.0 334.5 L 333.0 329.5 L 327.5 326.0 L 323.0 328.5 L 324.0 332.5 L 323.0 332.5 L 321.5 329.0 L 318.0 330.5 L 319.0 333.5 L 317.5 334.0 L 316.5 332.0 Q 310.7 332.7 308.0 336.5 Q 307.5 340.5 310.5 341.0 Q 316.0 342.5 317.5 340.0 L 322.0 342.5 L 322.5 344.0 L 324.0 344.5 L 325.0 346.5 L 324.5 348.0 L 326.0 348.5 L 325.5 350.0 L 319.5 351.0 L 319.5 350.0 L 321.0 349.5 L 318.5 349.0 L 315.5 350.0 Q 314.0 347.5 308.5 349.0 L 300.5 351.0 L 296.0 352.5 L 298.0 353.5 L 289.5 363.0 L 275.5 371.0 L 265.0 373.5 L 250.5 374.0 Q 230.3 370.3 219.0 357.5 Q 206.0 344.5 205.0 319.5 L 206.0 314.5 L 207.0 308.5 L 210.0 298.5 Q 215.4 287.4 224.5 280.0 Q 236.7 268.7 259.5 268.0 L 263.5 269.0 L 269.5 270.0 L 275.5 272.0 Q 282.3 263.8 285.0 251.5 Q 289.0 247.5 289.0 239.5 Q 284.8 226.8 277.5 217.0 L 270.5 214.0 L 263.0 211.5 L 275.5 209.0 Z" /><path desc="l 15 p 0" fill="rgb(160,42,248)" stroke="rgb(160,42,248)" stroke-width="1" opacity="0.9529411764705882" d="M 261.5 211.0 L 271.0 214.5 L 279.0 218.5 L 278.5 220.0 L 261.0 212.5 L 261.5 211.0 Z" /><path desc="l 15 p 1" fill="rgb(160,42,248)" stroke="rgb(160,42,248)" stroke-width="1" opacity="0.9529411764705882" d="M 294.5 211.0 L 288.5 218.0 L 284.5 219.0 L 284.5 218.0 Q 292.0 217.1 294.5 211.0 Z" /><path desc="l 15 p 2" fill="rgb(160,42,248)" stroke="rgb(160,42,248)" stroke-width="1" opacity="0.9529411764705882" d="M 279.5 221.0 L 280.5 223.0 L 279.0 222.5 L 279.5 221.0 Z" /><path desc="l 6 p 1" fill="rgb(255,255,255)" stroke="rgb(255,255,255)" stroke-width="1" opacity="1.0" d="M 397.5 229.0 L 399.0 229.5 L 399.5 231.0 L 401.0 231.5 L 400.5 236.0 L 386.0 235.5 L 386.0 233.5 L 386.5 232.0 L 397.5 229.0 Z" /><path desc="l 6 p 2" fill="rgb(255,255,255)" stroke="rgb(255,255,255)" stroke-width="1" opacity="1.0" d="M 327.5 244.0 L 336.0 244.5 L 335.5 248.0 L 302.0 246.5 L 302.5 245.0 L 320.5 245.0 Q 326.0 246.5 327.5 244.0 Z" /><path desc="l 0 p 1" fill="rgb(0,0,0)" stroke="rgb(0,0,0)" stroke-width="1" opacity="0.0" d="M 370.5 246.0 L 383.0 246.5 L 386.0 258.5 L 341.5 305.0 L 332.5 312.0 Q 332.0 315.5 327.5 315.0 Q 324.5 312.0 317.5 313.0 L 316.0 313.5 L 316.5 312.0 L 315.0 311.5 L 297.0 250.5 L 323.5 249.0 L 351.5 248.0 Q 352.8 245.8 357.5 247.0 L 366.5 247.0 L 370.5 246.0 Z" /><path desc="l 0 p 2" fill="rgb(0,0,0)" stroke="rgb(0,0,0)" stroke-width="1" opacity="0.0" d="M 292.5 253.0 L 294.0 253.5 L 310.0 309.5 L 308.5 310.0 Q 304.0 292.5 292.5 282.0 L 283.0 275.5 L 292.5 253.0 Z" /><path desc="l 0 p 3" fill="rgb(0,0,0)" stroke="rgb(0,0,0)" stroke-width="1" opacity="0.0" d="M 255.5 272.0 L 263.5 273.0 L 268.0 273.5 L 274.0 275.5 L 273.5 278.0 L 264.5 276.0 L 255.5 275.0 L 247.0 276.5 Q 230.7 280.2 222.0 291.5 L 214.0 305.5 L 212.0 314.5 L 211.0 323.5 L 213.0 334.5 Q 217.6 349.4 228.5 358.0 L 239.5 365.0 L 247.5 367.0 Q 253.4 369.6 263.5 368.0 Q 280.4 364.9 290.0 354.5 L 291.5 352.0 L 294.0 352.5 L 291.5 356.0 L 278.0 365.5 L 269.0 368.5 Q 262.3 371.8 250.5 370.0 Q 231.3 366.3 221.0 353.5 Q 209.5 342.0 209.0 319.5 L 211.0 309.5 L 215.0 298.5 L 223.5 286.0 Q 232.3 276.8 247.0 273.5 L 255.5 272.0 Z" /><path desc="l 6 p 3" fill="rgb(255,255,255)" stroke="rgb(255,255,255)" stroke-width="1" opacity="1.0" d="M 373.5 273.0 L 375.0 275.5 L 347.5 305.0 L 345.0 303.5 L 373.5 273.0 Z" /><path desc="l 0 p 4" fill="rgb(0,0,0)" stroke="rgb(0,0,0)" stroke-width="1" opacity="0.0" d="M 413.5 274.0 Q 440.6 274.9 453.0 290.5 L 461.0 302.5 L 464.5 315.0 L 465.0 328.5 L 462.5 337.0 L 460.0 343.5 Q 456.1 353.1 448.5 359.0 L 433.5 368.0 L 423.0 370.5 L 408.5 371.0 Q 386.0 367.0 375.0 351.5 L 369.0 339.5 L 366.0 329.5 L 365.0 320.5 L 367.5 309.0 Q 371.7 293.2 383.5 285.0 L 391.5 280.0 L 392.5 282.0 L 385.5 286.0 L 378.0 292.5 Q 367.6 303.6 367.0 324.5 L 369.0 333.5 Q 372.6 349.4 383.5 358.0 Q 389.0 363.5 397.5 366.0 L 407.0 368.5 L 421.5 369.0 Q 440.7 365.2 451.0 352.5 L 459.0 338.5 L 461.5 329.0 L 462.0 315.5 L 458.0 303.5 Q 454.1 293.9 446.5 288.0 Q 435.0 276.5 412.5 276.0 L 408.5 277.0 L 400.5 278.0 L 401.5 276.0 L 408.5 275.0 L 413.5 274.0 Z" /><path desc="l 6 p 4" fill="rgb(255,255,255)" stroke="rgb(255,255,255)" stroke-width="1" opacity="1.0" d="M 394.5 275.0 L 396.0 275.5 L 403.0 296.5 L 401.5 297.0 L 394.5 275.0 Z" /><path desc="l 0 p 5" fill="rgb(0,0,0)" stroke="rgb(0,0,0)" stroke-width="1" opacity="0.0" d="M 255.5 277.0 L 257.0 277.5 L 257.5 287.0 L 258.5 277.0 L 266.0 278.5 L 266.5 284.0 L 267.5 279.0 Q 271.3 278.3 272.0 280.5 L 266.5 293.0 L 265.5 284.0 Q 266.5 295.5 262.5 302.0 L 257.5 311.0 L 256.0 310.5 L 257.0 302.5 L 257.0 287.5 L 256.0 287.5 L 255.5 307.0 L 254.5 302.0 L 253.0 306.5 L 255.0 310.5 L 255.0 312.5 L 254.5 314.0 L 251.5 313.0 L 246.5 314.0 L 244.5 314.0 L 237.5 313.0 Q 236.3 315.3 231.5 314.0 L 214.5 314.0 L 214.0 311.5 L 216.5 306.0 L 219.0 305.5 L 217.0 304.5 Q 219.4 295.9 225.5 291.0 L 227.0 290.5 L 230.5 286.0 L 240.5 281.0 L 242.0 281.5 L 242.5 280.0 L 247.5 278.0 L 249.5 278.0 Q 254.3 279.3 255.5 277.0 Z" /><path desc="l 0 p 6" fill="rgb(0,0,0)" stroke="rgb(0,0,0)" stroke-width="1" opacity="0.0" d="M 413.5 278.0 L 421.0 279.5 L 421.0 303.5 Q 423.0 313.0 417.5 315.0 L 414.0 309.5 L 413.0 306.5 L 413.0 300.5 L 413.5 278.0 Z" /><path desc="l 0 p 7" fill="rgb(0,0,0)" stroke="rgb(0,0,0)" stroke-width="1" opacity="0.0" d="M 281.5 279.0 L 294.0 289.5 L 300.0 299.5 Q 303.0 302.5 303.0 308.5 L 301.5 309.0 Q 298.1 295.9 289.5 288.0 L 280.0 281.5 L 281.5 279.0 Z" /><path desc="l 0 p 8" fill="rgb(0,0,0)" stroke="rgb(0,0,0)" stroke-width="1" opacity="0.0" d="M 404.5 279.0 L 412.0 279.5 L 411.5 305.0 L 401.0 280.5 L 404.5 279.0 Z" /><path desc="l 0 p 9" fill="rgb(0,0,0)" stroke="rgb(0,0,0)" stroke-width="1" opacity="0.0" d="M 422.5 279.0 L 433.5 282.0 Q 443.3 286.7 450.0 294.5 Q 455.2 299.3 457.0 307.5 L 456.5 309.0 L 458.0 309.5 L 460.0 316.5 L 441.0 317.5 L 460.0 318.5 L 459.5 325.0 L 458.0 325.5 L 460.0 326.5 Q 458.9 339.4 452.5 347.0 L 451.0 347.5 Q 449.4 354.4 443.5 357.0 L 437.5 361.0 L 436.5 359.0 L 435.5 362.0 L 421.5 367.0 L 421.0 342.5 L 427.5 342.0 L 428.5 344.0 L 429.5 342.0 Q 434.3 340.8 435.5 343.0 L 440.0 341.5 L 441.0 338.5 L 440.0 333.5 L 442.0 332.5 L 440.0 331.5 L 440.5 330.0 L 442.0 329.5 L 440.0 328.5 L 440.5 323.0 L 444.0 322.5 L 440.0 321.5 L 441.0 318.5 L 440.0 315.5 L 446.0 312.5 L 443.5 311.0 L 440.5 313.0 L 439.5 311.0 Q 434.0 312.5 432.5 310.0 L 429.5 311.0 L 423.5 311.0 L 423.5 308.0 L 422.0 305.5 L 422.5 279.0 Z" /><path desc="l 0 p 10" fill="rgb(0,0,0)" stroke="rgb(0,0,0)" stroke-width="1" opacity="0.0" d="M 279.5 284.0 L 286.0 288.5 L 286.5 290.0 Q 288.3 287.3 290.0 291.5 L 298.0 303.5 L 296.0 304.5 L 299.0 306.5 L 298.5 309.0 Q 291.7 310.3 288.5 308.0 L 285.5 309.0 L 277.5 309.0 L 275.5 308.0 L 269.5 310.0 L 267.0 309.5 L 279.5 284.0 Z" /><path desc="l 0 p 11" fill="rgb(0,0,0)" stroke="rgb(0,0,0)" stroke-width="1" opacity="0.0" d="M 391.5 284.0 L 394.0 284.5 L 399.0 296.5 L 398.5 298.0 L 401.0 300.5 L 404.0 308.5 L 403.5 310.0 L 405.0 310.5 L 407.0 314.5 Q 406.0 317.0 401.5 316.0 L 397.5 315.0 L 393.0 316.5 L 400.5 317.0 Q 408.5 316.5 412.0 320.5 L 410.5 324.0 L 394.0 324.5 L 407.0 325.5 L 403.0 326.5 L 405.0 327.5 L 403.0 328.5 Q 404.8 331.8 406.5 328.0 L 411.5 325.0 L 412.0 326.5 L 409.0 332.5 L 410.5 336.0 L 411.5 331.0 L 412.0 335.5 L 412.0 337.5 L 411.5 367.0 Q 397.7 366.8 390.5 360.0 L 379.0 350.5 L 375.0 344.5 L 375.5 343.0 L 374.0 342.5 L 371.0 333.5 L 370.0 326.5 L 394.0 325.5 L 369.0 324.5 Q 368.3 319.8 370.5 318.0 L 393.0 317.5 L 370.0 316.5 L 371.5 309.0 L 374.0 308.5 L 372.0 307.5 Q 376.0 295.0 385.5 288.0 L 391.5 284.0 Z" /><path desc="l 6 p 5" fill="rgb(255,255,255)" stroke="rgb(255,255,255)" stroke-width="1" opacity="1.0" d="M 272.5 309.0 L 299.5 309.0 L 309.5 310.0 L 317.0 312.5 Q 330.4 315.1 337.0 324.5 Q 340.2 327.8 339.0 335.5 L 331.5 345.0 L 329.5 346.0 L 330.5 344.0 L 336.0 339.5 Q 339.2 336.2 338.0 328.5 L 330.5 319.0 L 317.0 313.5 L 310.5 311.0 L 297.5 310.0 L 272.5 310.0 L 256.5 313.0 L 256.5 312.0 L 272.5 309.0 Z" /><path desc="l 0 p 12" fill="rgb(0,0,0)" stroke="rgb(0,0,0)" stroke-width="1" opacity="0.0" d="M 274.5 310.0 L 283.0 310.5 L 274.5 311.0 L 274.5 310.0 Z" /><path desc="l 0 p 13" fill="rgb(0,0,0)" stroke="rgb(0,0,0)" stroke-width="1" opacity="0.0" d="M 286.5 310.0 L 300.0 310.5 L 299.5 312.0 L 290.5 311.0 Q 285.5 312.0 286.5 310.0 Z" /><path desc="l 0 p 14" fill="rgb(0,0,0)" stroke="rgb(0,0,0)" stroke-width="1" opacity="0.0" d="M 302.5 310.0 L 304.0 310.5 L 303.5 312.0 L 302.0 311.5 L 302.5 310.0 Z" /><path desc="l 0 p 15" fill="rgb(0,0,0)" stroke="rgb(0,0,0)" stroke-width="1" opacity="0.0" d="M 308.5 311.0 L 311.0 311.5 L 308.5 313.0 L 308.5 311.0 Z" /><path desc="l 6 p 6" fill="rgb(255,255,255)" stroke="rgb(255,255,255)" stroke-width="1" opacity="1.0" d="M 422.5 311.0 L 428.5 311.0 L 431.5 312.0 Q 433.3 309.3 439.5 311.0 L 440.0 312.5 L 436.0 314.5 L 438.5 316.0 L 440.0 315.5 L 439.5 318.0 L 435.5 317.0 Q 434.3 319.3 429.5 318.0 L 426.5 317.0 L 423.5 318.0 L 422.0 317.5 L 422.5 311.0 Z" /><path desc="l 0 p 16" fill="rgb(0,0,0)" stroke="rgb(0,0,0)" stroke-width="1" opacity="0.0" d="M 265.5 314.0 L 267.5 315.0 Q 269.0 312.5 274.5 314.0 L 276.5 315.0 Q 277.8 312.8 282.5 314.0 L 300.5 314.0 L 301.0 318.5 L 286.5 319.0 L 278.5 320.0 L 278.5 319.0 L 280.0 318.5 Q 269.8 319.2 264.0 315.5 L 265.5 314.0 Z" /><path desc="l 0 p 17" fill="rgb(0,0,0)" stroke="rgb(0,0,0)" stroke-width="1" opacity="0.0" d="M 303.5 314.0 L 305.0 317.5 L 305.0 324.5 L 303.5 325.0 L 303.5 314.0 Z" /><path desc="l 0 p 18" fill="rgb(0,0,0)" stroke="rgb(0,0,0)" stroke-width="1" opacity="0.0" d="M 214.5 315.0 L 235.5 315.0 L 244.5 316.0 L 247.5 315.0 L 249.5 315.0 Q 253.3 314.3 254.0 316.5 L 253.5 318.0 L 249.5 316.0 L 248.5 319.0 L 244.5 320.0 L 236.5 321.0 L 223.0 321.5 L 240.0 322.5 L 236.0 324.5 L 238.0 325.5 L 237.5 329.0 L 236.0 329.5 L 241.0 331.5 L 241.5 333.0 L 249.0 334.5 Q 246.8 335.8 249.5 337.0 L 250.5 335.0 L 253.0 336.5 L 253.5 343.0 L 254.5 336.0 L 257.0 336.5 Q 255.3 342.8 258.0 344.5 L 257.0 346.5 L 258.5 352.0 L 259.5 347.0 L 265.0 348.5 L 265.5 354.0 L 266.5 348.0 L 271.0 350.5 L 271.5 352.0 L 272.5 350.0 L 277.5 349.0 L 277.5 350.0 L 275.0 350.5 L 280.0 351.5 L 280.5 353.0 L 281.5 351.0 L 283.0 350.5 L 279.0 349.5 L 284.5 349.0 L 289.0 350.5 L 283.0 351.5 L 289.0 352.5 L 283.0 356.5 L 281.5 359.0 L 267.5 365.0 L 266.5 354.0 L 265.5 365.0 L 261.5 366.0 L 260.5 362.0 L 259.5 366.0 L 251.0 365.5 L 250.5 361.0 L 249.5 365.0 L 241.0 362.5 L 240.5 361.0 L 238.5 362.0 L 234.0 359.5 L 233.5 358.0 L 229.5 356.0 L 223.0 349.5 L 222.0 347.5 L 222.5 346.0 L 220.0 345.5 L 217.0 339.5 L 217.5 338.0 L 216.0 337.5 L 214.0 330.5 L 216.0 329.5 L 214.0 328.5 L 213.0 321.5 L 223.0 320.5 L 213.0 319.5 L 214.5 315.0 Z" /><path desc="l 0 p 19" fill="rgb(0,0,0)" stroke="rgb(0,0,0)" stroke-width="1" opacity="0.0" d="M 419.5 315.0 L 421.0 317.5 L 420.0 317.5 L 419.5 315.0 Z" /><path desc="l 0 p 20" fill="rgb(0,0,0)" stroke="rgb(0,0,0)" stroke-width="1" opacity="0.0" d="M 319.5 318.0 L 324.0 319.5 L 320.5 322.0 L 319.5 318.0 Z" /><path desc="l 0 p 21" fill="rgb(0,0,0)" stroke="rgb(0,0,0)" stroke-width="1" opacity="0.0" d="M 312.5 319.0 L 315.0 324.5 Q 314.0 327.0 309.5 326.0 L 309.0 322.5 L 310.5 320.0 L 312.5 319.0 Z" /><path desc="l 6 p 7" fill="rgb(255,255,255)" stroke="rgb(255,255,255)" stroke-width="1" opacity="1.0" d="M 423.5 319.0 L 429.5 319.0 L 433.5 320.0 Q 434.8 317.8 439.5 319.0 L 440.0 321.5 L 436.0 322.5 L 440.0 323.5 L 439.5 329.0 L 438.0 329.5 L 440.0 330.5 L 438.0 331.5 L 440.0 332.5 L 439.5 337.0 L 438.0 337.5 L 440.0 338.5 L 439.5 342.0 L 434.5 341.0 L 429.5 342.0 L 427.5 342.0 L 421.0 341.5 L 421.5 329.0 L 423.0 329.5 L 422.0 327.5 Q 423.3 324.8 424.5 327.0 L 426.5 328.0 L 429.5 327.0 L 435.5 330.0 L 438.0 328.5 L 425.5 324.0 L 424.0 324.5 L 424.5 323.0 L 422.5 324.0 L 422.5 321.0 L 429.0 320.5 L 425.5 320.0 Q 422.5 320.5 423.5 319.0 Z" /><path desc="l 0 p 22" fill="rgb(0,0,0)" stroke="rgb(0,0,0)" stroke-width="1" opacity="0.0" d="M 250.5 320.0 L 253.0 320.5 L 246.0 322.5 L 252.5 325.0 L 254.0 324.5 L 253.5 327.0 L 251.0 328.5 L 249.5 332.0 L 241.0 329.5 L 240.0 325.5 Q 241.4 322.9 246.0 323.5 L 243.0 322.5 L 250.5 320.0 Z" /><path desc="l 0 p 23" fill="rgb(0,0,0)" stroke="rgb(0,0,0)" stroke-width="1" opacity="0.0" d="M 282.5 320.0 L 301.0 320.5 L 300.5 325.0 L 287.0 321.5 L 284.5 321.0 Q 281.5 321.5 282.5 320.0 Z" /><path desc="l 0 p 24" fill="rgb(0,0,0)" stroke="rgb(0,0,0)" stroke-width="1" opacity="0.0" d="M 331.5 323.0 L 332.5 325.0 L 331.5 323.0 Z" /><path desc="l 0 p 25" fill="rgb(0,0,0)" stroke="rgb(0,0,0)" stroke-width="1" opacity="0.0" d="M 255.5 324.0 L 256.0 326.5 L 255.0 326.5 L 255.5 324.0 Z" /><path desc="l 0 p 26" fill="rgb(0,0,0)" stroke="rgb(0,0,0)" stroke-width="1" opacity="0.0" d="M 258.5 324.0 L 263.5 327.0 L 264.5 325.0 L 268.5 327.0 L 271.5 326.0 Q 273.0 329.5 274.5 327.0 L 283.5 330.0 L 286.5 329.0 L 300.0 332.5 L 298.5 336.0 L 296.0 336.5 L 298.0 337.5 L 292.5 348.0 Q 287.8 349.3 286.5 347.0 L 284.5 347.0 L 277.0 346.5 L 276.5 345.0 L 275.5 347.0 L 268.5 345.0 L 266.5 346.0 L 266.0 343.5 L 267.0 341.5 L 265.0 341.5 L 265.0 339.5 L 263.5 329.0 L 262.0 328.5 L 261.5 327.0 L 258.0 325.5 L 258.5 324.0 Z" /><path desc="l 0 p 27" fill="rgb(0,0,0)" stroke="rgb(0,0,0)" stroke-width="1" opacity="0.0" d="M 413.5 325.0 L 416.5 326.0 L 419.5 325.0 L 420.0 329.5 L 420.0 331.5 L 419.5 367.0 L 413.0 366.5 L 413.0 344.5 L 413.0 338.5 L 414.0 335.5 L 413.0 332.5 L 413.5 325.0 Z" /><path desc="l 0 p 28" fill="rgb(0,0,0)" stroke="rgb(0,0,0)" stroke-width="1" opacity="0.0" d="M 327.5 326.0 L 333.0 329.5 Q 333.6 334.6 330.5 336.0 L 328.0 336.5 L 327.5 342.0 L 323.0 333.5 L 324.0 330.5 L 323.0 328.5 L 327.5 326.0 Z" /><path desc="l 6 p 8" fill="rgb(255,255,255)" stroke="rgb(255,255,255)" stroke-width="1" opacity="1.0" d="M 292.5 327.0 L 302.0 329.5 L 301.5 331.0 L 292.0 328.5 L 292.5 327.0 Z" /><path desc="l 15 p 3" fill="rgb(160,42,248)" stroke="rgb(160,42,248)" stroke-width="1" opacity="0.9529411764705882" d="M 319.5 329.0 L 322.0 329.5 L 334.0 357.5 L 330.0 359.5 L 333.0 361.5 L 330.5 362.0 L 328.0 358.5 L 329.0 355.5 L 318.0 330.5 L 319.5 329.0 Z" /><path desc="l 6 p 9" fill="rgb(255,255,255)" stroke="rgb(255,255,255)" stroke-width="1" opacity="1.0" d="M 320.5 331.0 L 331.0 354.5 L 330.0 354.5 L 323.0 338.5 L 320.5 331.0 Z" /><path desc="l 0 p 29" fill="rgb(0,0,0)" stroke="rgb(0,0,0)" stroke-width="1" opacity="0.0" d="M 302.5 332.0 L 304.0 332.5 L 297.5 348.0 L 295.0 347.5 L 300.5 337.0 L 302.5 332.0 Z" /><path desc="l 0 p 30" fill="rgb(0,0,0)" stroke="rgb(0,0,0)" stroke-width="1" opacity="0.0" d="M 315.5 332.0 L 317.0 332.5 L 317.5 334.0 L 320.0 335.5 L 323.0 343.5 L 322.0 343.5 L 321.5 342.0 L 317.5 340.0 Q 316.0 342.5 310.5 341.0 Q 307.5 340.5 308.0 336.5 L 315.5 332.0 Z" /><path desc="l 0 p 31" fill="rgb(0,0,0)" stroke="rgb(0,0,0)" stroke-width="1" opacity="0.0" d="M 332.5 338.0 L 332.0 339.5 L 331.5 341.0 L 330.0 340.5 L 332.5 338.0 Z" /><path desc="l 0 p 32" fill="rgb(0,0,0)" stroke="rgb(0,0,0)" stroke-width="1" opacity="0.0" d="M 305.5 341.0 L 310.0 346.5 L 303.5 347.0 L 303.0 345.5 L 305.5 341.0 Z" /><path desc="l 0 p 33" fill="rgb(0,0,0)" stroke="rgb(0,0,0)" stroke-width="1" opacity="0.0" d="M 318.5 343.0 L 320.0 345.5 L 314.5 346.0 L 313.5 344.0 L 318.5 343.0 Z" /><path desc="l 6 p 10" fill="rgb(255,255,255)" stroke="rgb(255,255,255)" stroke-width="1" opacity="1.0" d="M 258.5 346.0 L 263.5 347.0 L 270.5 349.0 L 289.5 351.0 L 302.5 352.0 L 306.5 351.0 L 314.5 350.0 L 324.5 347.0 L 323.5 349.0 Q 317.0 352.0 307.5 352.0 L 296.5 353.0 Q 295.3 350.8 290.5 352.0 L 279.5 351.0 L 267.5 349.0 Q 266.3 346.8 261.5 348.0 L 259.5 347.0 L 258.5 346.0 Z" /><path desc="l 3 p 1" fill="rgb(73,1,1)" stroke="rgb(73,1,1)" stroke-width="1" opacity="1.0" d="M 271.5 350.0 L 277.0 359.5 L 275.0 358.5 L 272.0 352.5 L 271.5 350.0 Z" /><path desc="l 0 p 34" fill="rgb(0,0,0)" stroke="rgb(0,0,0)" stroke-width="1" opacity="0.0" d="M 293.5 350.0 L 296.0 350.5 L 293.5 351.0 L 293.5 350.0 Z" /><path desc="l 6 p 11" fill="rgb(255,255,255)" stroke="rgb(255,255,255)" stroke-width="1" opacity="1.0" d="M 331.5 358.0 L 334.0 358.5 L 333.5 361.0 L 330.0 359.5 L 331.5 358.0 Z" /></svg>