<svg width="624" height="601" version="1.1" xmlns="http://www.w3.org/2000/svg" desc="Created with ImageTracer.java version 1.1.2" ><path desc="l 0 p 0" fill="rgb(0,0,0)" stroke="rgb(0,0,0)" stroke-width="1" opacity="0.0" d="M 0.5 0.0 L 624.0 0.5 L 623.5 601.0 L 0.0 600.5 L 0.5 0.0 Z" /><path desc="l 1 p 0" fill="rgb(2,0,1)" stroke="rgb(2,0,1)" stroke-width="1" opacity="1.0" d="M 334.5 225.0 L 350.0 225.5 L 362.5 227.0 Q 385.5 230.5 398.0 244.5 L 413.5 262.0 L 423.0 268.5 L 423.0 298.5 L 422.5 309.0 L 420.0 326.5 L 421.5 326.0 L 428.5 325.0 L 433.0 328.5 L 435.0 334.5 L 437.0 344.5 L 434.0 356.5 Q 430.2 366.2 422.5 372.0 L 411.0 375.5 L 405.0 396.5 Q 403.9 405.9 398.5 411.0 L 399.0 409.5 L 409.5 373.0 Q 421.4 371.4 427.0 363.5 L 431.5 353.0 L 434.0 343.5 Q 431.8 342.3 433.0 337.5 L 428.5 328.0 Q 423.8 326.8 422.5 329.0 L 416.5 333.0 L 416.0 330.5 L 417.0 328.5 Q 408.2 297.3 392.5 273.0 L 376.5 271.0 L 362.5 267.0 L 362.0 276.5 Q 363.0 281.0 360.5 282.0 Q 355.3 282.2 353.5 279.0 L 346.0 273.5 L 343.5 269.0 L 336.0 269.5 L 326.0 271.5 L 311.5 277.0 L 297.0 287.5 L 294.0 296.5 Q 289.2 308.2 288.0 323.5 L 287.0 341.5 L 288.0 343.5 L 285.5 345.0 L 277.5 336.0 L 271.5 335.0 L 268.5 344.0 L 268.0 352.5 L 270.5 361.0 Q 273.1 370.9 280.5 376.0 L 285.5 379.0 L 290.5 380.0 Q 295.8 378.8 297.0 381.5 L 303.0 397.5 L 307.5 407.0 L 311.0 413.5 L 312.0 418.5 L 307.5 430.0 Q 306.3 427.8 305.0 430.5 L 298.5 450.0 L 262.5 461.0 Q 240.1 467.1 223.5 479.0 L 206.0 488.5 L 203.5 492.0 L 202.0 492.5 L 201.0 518.5 L 213.5 519.0 L 217.5 518.0 L 222.5 519.0 L 237.5 519.0 L 293.5 519.0 L 519.5 519.0 L 520.0 517.5 Q 517.8 516.3 519.0 511.5 L 518.0 499.5 Q 517.0 486.0 507.5 481.0 Q 490.8 469.2 467.5 464.0 L 458.0 461.5 L 447.5 457.0 L 412.0 444.5 L 407.5 434.0 L 399.5 424.0 Q 395.8 424.8 395.0 422.5 L 394.0 419.5 L 396.5 414.0 L 397.5 421.0 Q 404.6 421.9 407.0 427.5 L 414.5 442.0 L 450.5 455.0 Q 454.8 458.8 462.0 459.5 L 478.5 464.0 L 495.5 471.0 Q 509.3 475.7 517.0 486.5 L 520.0 491.5 L 521.0 498.5 L 523.0 521.5 L 307.5 522.0 L 251.5 522.0 L 217.5 523.0 Q 216.3 520.8 211.5 522.0 L 198.0 521.5 L 198.0 505.5 L 199.0 496.5 Q 197.8 491.3 200.5 490.0 L 226.5 473.0 L 247.0 463.5 L 264.0 457.5 L 282.5 452.0 L 297.0 446.5 L 305.5 425.0 L 307.0 424.5 L 310.0 415.5 L 295.5 383.0 L 288.5 383.0 Q 284.3 383.8 283.5 381.0 Q 276.0 378.0 272.0 371.5 L 267.5 362.0 L 265.5 353.0 L 265.0 344.5 L 267.0 338.5 L 269.5 333.0 L 276.5 332.0 L 278.5 333.0 L 279.0 331.5 L 275.5 325.0 L 272.0 316.5 L 268.0 303.5 L 266.5 295.0 L 266.0 284.5 Q 272.2 262.7 287.5 250.0 Q 300.1 239.1 316.5 232.0 L 334.5 225.0 Z" /><path desc="l 6 p 0" fill="rgb(127,104,79)" stroke="rgb(127,104,79)" stroke-width="1" opacity="1.0" d="M 362.5 267.0 L 381.5 272.0 Q 390.1 270.9 394.0 274.5 L 408.0 303.5 L 412.5 316.0 L 414.5 327.0 L 417.0 328.5 L 416.0 332.5 L 418.5 331.0 L 422.5 329.0 Q 423.8 326.8 428.5 328.0 L 433.0 337.5 L 434.0 344.5 L 431.5 353.0 L 429.5 358.0 L 423.5 367.0 L 415.0 371.5 L 409.0 373.5 L 403.0 396.5 L 399.0 409.5 L 394.0 420.5 L 400.0 429.5 L 402.0 440.5 L 404.5 449.0 L 411.5 469.0 L 425.5 482.0 Q 432.9 490.1 444.5 494.0 L 444.0 492.5 Q 439.9 481.1 432.5 473.0 L 420.5 456.0 L 416.0 447.5 Q 417.5 444.5 419.0 447.5 L 436.5 473.0 Q 444.2 482.8 449.0 495.5 Q 447.8 498.3 442.5 497.0 L 426.5 487.0 L 425.0 495.5 L 422.5 505.0 Q 409.7 505.3 402.5 500.0 Q 392.9 508.9 379.5 514.0 Q 376.0 509.5 367.5 510.0 L 356.0 517.5 L 356.5 519.0 L 347.0 517.5 L 346.5 513.0 L 344.5 506.0 L 331.5 510.0 Q 326.8 512.3 318.5 511.0 L 312.0 508.5 L 313.0 503.5 L 316.0 497.5 L 322.5 481.0 L 325.5 468.0 L 343.0 478.5 L 350.5 482.0 L 351.0 480.5 L 348.5 477.0 L 327.0 464.5 L 305.0 430.5 L 309.0 428.5 L 312.0 415.5 L 304.5 401.0 L 303.0 401.5 L 304.0 399.5 L 302.0 399.5 L 303.0 396.5 L 295.5 380.0 L 288.5 380.0 L 284.5 378.0 L 276.0 371.5 L 270.0 360.5 L 268.5 353.0 L 268.0 344.5 L 271.5 335.0 Q 277.3 334.2 279.0 337.5 L 285.0 343.5 L 285.5 345.0 L 288.0 343.5 L 288.5 320.0 L 290.0 309.5 L 297.5 287.0 Q 304.8 279.3 315.5 275.0 L 326.0 271.5 L 332.5 270.0 L 343.5 269.0 L 349.5 277.0 L 354.5 280.0 L 360.5 282.0 Q 363.0 281.0 362.0 276.5 L 362.5 267.0 Z" /><path desc="l 1 p 1" fill="rgb(2,0,1)" stroke="rgb(2,0,1)" stroke-width="1" opacity="1.0" d="M 384.5 304.0 L 388.5 305.0 L 392.5 306.0 L 400.0 310.5 L 402.0 313.5 L 400.5 313.0 L 397.5 312.0 Q 394.3 309.7 387.5 311.0 L 376.5 316.0 L 368.5 318.0 L 364.0 314.5 L 364.5 310.0 L 375.5 306.0 L 380.5 305.0 L 384.5 304.0 Z" /><path desc="l 1 p 2" fill="rgb(2,0,1)" stroke="rgb(2,0,1)" stroke-width="1" opacity="1.0" d="M 319.5 309.0 Q 328.5 307.5 332.5 311.0 L 343.0 317.5 L 342.5 319.0 L 339.5 318.0 L 330.5 318.0 Q 329.3 320.3 324.5 319.0 L 315.5 319.0 L 310.5 320.0 L 303.5 321.0 L 309.5 314.0 L 319.5 309.0 Z" /><path desc="l 0 p 1" fill="rgb(0,0,0)" stroke="rgb(0,0,0)" stroke-width="1" opacity="0.0" d="M 413.5 318.0 L 414.0 320.5 L 413.0 320.5 L 413.5 318.0 Z" /><path desc="l 0 p 2" fill="rgb(0,0,0)" stroke="rgb(0,0,0)" stroke-width="1" opacity="0.0" d="M 414.5 322.0 L 416.0 326.5 L 414.5 327.0 L 414.5 322.0 Z" /><path desc="l 1 p 3" fill="rgb(2,0,1)" stroke="rgb(2,0,1)" stroke-width="1" opacity="1.0" d="M 378.5 326.0 Q 383.8 324.8 385.0 327.5 Q 386.5 333.5 383.5 335.0 Q 378.3 336.3 377.0 333.5 L 376.0 330.5 L 378.5 326.0 Z" /><path desc="l 13 p 0" fill="rgb(255,255,255)" stroke="rgb(255,255,255)" stroke-width="1" opacity="1.0" d="M 384.5 326.0 Q 390.0 324.5 391.5 327.0 L 398.0 330.5 L 394.0 333.5 L 390.5 335.0 L 384.5 335.0 L 385.0 333.5 Q 385.5 327.5 384.5 326.0 Z" /><path desc="l 13 p 1" fill="rgb(255,255,255)" stroke="rgb(255,255,255)" stroke-width="1" opacity="1.0" d="M 376.5 327.0 L 377.0 329.5 L 377.0 331.5 L 378.0 334.5 L 376.5 334.0 L 372.0 330.5 L 372.5 329.0 L 376.5 327.0 Z" /><path desc="l 1 p 4" fill="rgb(2,0,1)" stroke="rgb(2,0,1)" stroke-width="1" opacity="1.0" d="M 322.5 329.0 Q 328.8 327.8 330.0 331.5 Q 331.0 337.0 327.5 338.0 Q 321.3 339.3 320.0 335.5 L 319.0 333.5 L 322.5 329.0 Z" /><path desc="l 13 p 2" fill="rgb(255,255,255)" stroke="rgb(255,255,255)" stroke-width="1" opacity="1.0" d="M 317.5 331.0 L 320.0 331.5 L 319.0 333.5 L 321.0 336.5 L 317.5 337.0 L 314.0 334.5 L 315.5 332.0 L 317.5 331.0 Z" /><path desc="l 13 p 3" fill="rgb(255,255,255)" stroke="rgb(255,255,255)" stroke-width="1" opacity="1.0" d="M 330.5 331.0 L 335.0 333.5 L 333.5 336.0 L 329.5 337.0 L 330.0 335.5 L 330.5 331.0 Z" /><path desc="l 0 p 3" fill="rgb(0,0,0)" stroke="rgb(0,0,0)" stroke-width="1" opacity="0.0" d="M 287.5 334.0 L 288.0 341.5 L 287.0 341.5 L 287.5 334.0 Z" /><path desc="l 1 p 5" fill="rgb(2,0,1)" stroke="rgb(2,0,1)" stroke-width="1" opacity="1.0" d="M 344.5 363.0 L 352.0 363.5 L 351.5 367.0 L 344.0 366.5 L 344.5 363.0 Z" /><path desc="l 1 p 6" fill="rgb(2,0,1)" stroke="rgb(2,0,1)" stroke-width="1" opacity="1.0" d="M 362.5 364.0 L 370.0 364.5 L 369.5 367.0 Q 362.8 368.8 361.0 365.5 L 362.5 364.0 Z" /><path desc="l 1 p 7" fill="rgb(2,0,1)" stroke="rgb(2,0,1)" stroke-width="1" opacity="1.0" d="M 360.5 379.0 L 380.0 391.5 L 379.0 394.5 L 374.5 400.0 L 367.5 403.0 L 367.5 402.0 L 375.0 396.5 L 371.5 392.0 L 368.0 394.5 L 367.5 396.0 L 361.5 398.0 L 354.5 399.0 L 344.5 397.0 L 340.0 398.5 L 346.0 402.5 L 344.5 403.0 L 330.0 395.5 L 331.5 390.0 Q 338.3 390.8 340.5 387.0 L 352.5 380.0 L 356.5 382.0 L 360.5 379.0 Z" /><path desc="l 13 p 4" fill="rgb(255,255,255)" stroke="rgb(255,255,255)" stroke-width="1" opacity="1.0" d="M 349.5 387.0 Q 352.1 390.9 359.5 390.0 L 363.5 388.0 L 367.0 390.5 L 366.5 392.0 L 360.5 393.0 L 346.5 393.0 Q 343.8 391.8 346.0 390.5 L 349.5 387.0 Z" /><path desc="l 0 p 4" fill="rgb(0,0,0)" stroke="rgb(0,0,0)" stroke-width="1" opacity="0.0" d="M 397.5 424.0 L 401.0 425.5 L 405.0 429.5 L 412.5 445.0 L 417.0 446.5 L 416.0 449.5 L 438.0 480.5 L 433.0 476.5 L 399.5 426.0 L 397.5 424.0 Z" /><path desc="l 13 p 5" fill="rgb(255,255,255)" stroke="rgb(255,255,255)" stroke-width="1" opacity="1.0" d="M 399.5 426.0 L 431.0 473.5 Q 438.5 480.0 443.0 489.5 L 439.5 492.0 Q 423.1 482.4 411.0 468.5 L 403.5 445.0 L 399.5 426.0 Z" /><path desc="l 13 p 6" fill="rgb(255,255,255)" stroke="rgb(255,255,255)" stroke-width="1" opacity="1.0" d="M 305.5 431.0 L 328.5 466.0 Q 341.2 470.3 350.0 478.5 L 351.0 481.5 L 348.5 482.0 L 325.5 468.0 Q 322.7 489.2 312.5 503.0 L 310.0 501.5 L 302.0 468.5 L 300.0 460.5 L 299.0 448.5 L 305.5 431.0 Z" /><path desc="l 13 p 7" fill="rgb(255,255,255)" stroke="rgb(255,255,255)" stroke-width="1" opacity="1.0" d="M 400.5 441.0 L 401.0 443.5 L 400.0 443.5 L 400.5 441.0 Z" /><path desc="l 13 p 8" fill="rgb(255,255,255)" stroke="rgb(255,255,255)" stroke-width="1" opacity="1.0" d="M 401.5 445.0 L 405.0 457.5 L 410.0 470.5 L 398.5 477.0 Q 395.3 480.3 388.5 480.0 L 390.0 477.5 L 396.0 467.5 L 400.0 455.5 Q 399.0 448.5 401.5 445.0 Z" /><path desc="l 0 p 5" fill="rgb(0,0,0)" stroke="rgb(0,0,0)" stroke-width="1" opacity="0.0" d="M 419.5 447.0 L 447.5 457.0 L 458.0 461.5 L 472.5 465.0 L 492.5 473.0 Q 506.2 477.3 514.0 487.5 L 517.0 492.5 L 518.0 498.5 L 519.0 510.5 L 520.0 518.5 L 357.5 519.0 L 356.5 517.0 L 364.0 512.5 Q 366.0 509.0 372.5 510.0 L 380.5 514.0 L 389.5 509.0 L 396.0 506.5 L 410.5 503.0 L 416.0 504.5 L 422.5 505.0 L 425.5 497.0 L 435.5 493.0 L 440.5 496.0 L 447.5 497.0 L 449.0 494.5 L 446.0 489.5 L 446.5 488.0 L 445.0 487.5 L 437.0 473.5 L 425.5 458.0 L 421.0 451.5 L 419.5 447.0 Z" /><path desc="l 0 p 6" fill="rgb(0,0,0)" stroke="rgb(0,0,0)" stroke-width="1" opacity="0.0" d="M 296.5 450.0 L 297.0 454.5 Q 289.0 454.5 286.0 459.5 L 273.0 471.5 Q 281.3 488.7 295.5 500.0 L 305.0 501.5 L 308.5 511.0 Q 311.5 508.0 311.5 502.0 Q 314.3 503.3 312.0 504.5 Q 311.0 509.0 313.5 510.0 L 328.5 511.0 L 338.5 508.0 L 344.5 507.0 L 347.5 518.0 L 352.0 518.5 L 226.5 519.0 L 227.0 517.5 L 228.0 515.5 L 221.0 510.5 L 217.0 497.5 L 215.5 487.0 L 211.0 486.5 Q 234.1 469.1 265.5 460.0 L 279.5 456.0 L 296.5 450.0 Z" /><path desc="l 6 p 1" fill="rgb(127,104,79)" stroke="rgb(127,104,79)" stroke-width="1" opacity="1.0" d="M 297.5 450.0 L 307.5 490.0 L 311.0 506.5 L 308.5 511.0 Q 302.0 498.0 300.0 480.5 L 298.0 461.5 L 297.5 450.0 Z" /><path desc="l 0 p 7" fill="rgb(0,0,0)" stroke="rgb(0,0,0)" stroke-width="1" opacity="0.0" d="M 298.5 450.0 L 299.0 453.5 L 298.0 453.5 L 298.5 450.0 Z" /><path desc="l 13 p 9" fill="rgb(255,255,255)" stroke="rgb(255,255,255)" stroke-width="1" opacity="1.0" d="M 297.5 454.0 L 298.5 469.0 L 300.0 479.5 L 302.0 490.5 L 305.0 500.5 L 301.5 501.0 L 298.5 500.0 Q 293.3 500.8 292.5 497.0 L 283.0 487.5 L 273.0 471.5 L 286.0 459.5 Q 288.7 455.7 294.5 455.0 L 297.5 454.0 Z" /><path desc="l 13 p 10" fill="rgb(255,255,255)" stroke="rgb(255,255,255)" stroke-width="1" opacity="1.0" d="M 409.5 473.0 L 413.5 475.0 L 421.0 481.5 L 416.5 478.0 L 413.0 475.5 L 409.5 474.0 Q 402.2 482.2 388.0 483.5 L 392.0 485.5 Q 392.8 493.8 389.5 498.0 Q 381.2 505.7 368.5 509.0 L 368.5 508.0 L 388.0 495.5 L 385.5 486.0 L 384.0 485.5 Q 383.5 481.5 386.5 481.0 L 391.5 482.0 Q 402.5 479.5 409.5 473.0 Z" /><path desc="l 13 p 11" fill="rgb(255,255,255)" stroke="rgb(255,255,255)" stroke-width="1" opacity="1.0" d="M 208.5 487.0 L 216.0 487.5 L 217.0 497.5 Q 217.8 507.8 223.5 513.0 L 228.0 515.5 L 225.5 519.0 Q 216.9 520.1 213.0 516.5 L 211.0 512.5 L 209.0 506.5 L 211.0 507.5 L 213.0 511.5 Q 212.5 516.5 216.5 517.0 L 219.0 511.5 L 207.5 494.0 L 206.0 493.5 L 206.5 488.0 L 208.5 487.0 Z" /><path desc="l 13 p 12" fill="rgb(255,255,255)" stroke="rgb(255,255,255)" stroke-width="1" opacity="1.0" d="M 426.5 487.0 L 435.0 493.5 L 425.5 497.0 L 425.0 493.5 L 426.5 487.0 Z" /><path desc="l 0 p 8" fill="rgb(0,0,0)" stroke="rgb(0,0,0)" stroke-width="1" opacity="0.0" d="M 205.5 490.0 L 207.0 494.5 L 204.0 496.5 L 209.0 506.5 L 211.0 512.5 L 214.0 518.5 L 201.5 519.0 L 201.0 500.5 L 202.5 492.0 L 205.5 490.0 Z" /><path desc="l 0 p 9" fill="rgb(0,0,0)" stroke="rgb(0,0,0)" stroke-width="1" opacity="0.0" d="M 442.5 490.0 L 445.0 493.5 L 443.5 494.0 L 440.0 492.5 L 440.5 491.0 L 442.5 490.0 Z" /><path desc="l 6 p 2" fill="rgb(127,104,79)" stroke="rgb(127,104,79)" stroke-width="1" opacity="1.0" d="M 207.5 494.0 L 216.0 506.5 L 219.0 513.5 L 216.5 517.0 Q 212.4 515.6 212.5 510.0 L 204.0 496.5 L 207.5 494.0 Z" /><path desc="l 1 p 8" fill="rgb(2,0,1)" stroke="rgb(2,0,1)" stroke-width="1" opacity="1.0" d="M 357.5 495.0 L 366.5 495.0 Q 371.3 494.3 373.0 496.5 L 371.0 500.5 L 364.5 507.0 Q 359.5 507.5 359.0 503.5 L 357.5 495.0 Z" /><path desc="l 13 p 13" fill="rgb(255,255,255)" stroke="rgb(255,255,255)" stroke-width="1" opacity="1.0" d="M 402.5 500.0 L 407.0 502.5 L 406.5 504.0 L 394.5 507.0 L 395.5 505.0 L 402.5 500.0 Z" /><path desc="l 13 p 14" fill="rgb(255,255,255)" stroke="rgb(255,255,255)" stroke-width="1" opacity="1.0" d="M 342.5 506.0 L 345.0 506.5 L 342.5 507.0 L 342.5 506.0 Z" /></svg>