<svg width="624" height="601" version="1.1" xmlns="http://www.w3.org/2000/svg" desc="Created with ImageTracer.java version 1.1.2" ><path desc="l 0 p 0" fill="rgb(0,0,0)" stroke="rgb(0,0,0)" stroke-width="1" opacity="0.01568627450980392" d="M 0.5 0.0 L 624.0 0.5 L 623.5 601.0 L 0.0 600.5 L 0.5 0.0 Z" /><path desc="l 4 p 0" fill="rgb(0,0,0)" stroke="rgb(0,0,0)" stroke-width="1" opacity="1.0" d="M 330.5 205.0 L 333.0 205.5 L 331.5 232.0 L 331.0 251.5 L 332.0 251.5 L 332.5 235.0 L 334.0 217.5 L 335.5 208.0 L 338.0 208.5 L 335.0 243.5 L 333.5 267.0 L 331.0 266.5 L 330.5 253.0 L 330.0 270.5 L 332.5 276.0 L 333.0 270.5 Q 330.8 269.3 333.5 268.0 L 338.5 266.0 Q 341.5 267.5 340.0 273.5 L 339.0 277.5 Q 341.3 278.8 340.0 283.5 L 337.0 288.5 L 338.5 291.0 L 330.0 294.5 L 331.0 298.5 L 331.0 309.5 L 330.0 314.5 L 325.0 327.5 L 318.0 345.5 L 323.5 350.0 L 327.0 341.5 L 331.0 333.5 L 340.5 318.0 L 366.5 308.0 L 386.0 298.5 L 386.5 297.0 L 390.5 298.0 Q 396.3 297.2 398.0 300.5 L 400.0 307.5 L 400.0 318.5 L 394.5 338.0 L 376.0 342.5 L 358.5 345.0 L 353.5 344.0 L 352.0 350.5 L 350.0 355.5 Q 346.8 365.3 340.0 371.5 L 342.5 372.0 L 350.0 375.5 L 357.5 378.0 L 367.0 379.5 L 367.5 381.0 Q 375.7 382.7 379.5 380.0 L 383.5 381.0 Q 390.1 380.4 392.0 384.5 Q 395.7 392.8 394.0 406.5 L 387.5 417.0 L 380.5 419.0 L 373.0 415.5 L 370.5 411.0 L 337.5 403.0 L 331.5 402.0 Q 319.4 400.6 314.0 392.5 L 310.5 385.0 L 301.0 384.5 L 291.5 383.0 L 277.5 377.0 L 273.5 382.0 L 265.0 388.5 L 259.5 400.0 L 251.5 410.0 L 242.5 416.0 Q 241.3 420.3 234.5 419.0 L 224.5 414.0 L 222.5 415.0 L 217.0 411.5 Q 214.0 409.5 215.0 403.5 Q 217.8 401.8 216.0 395.5 Q 215.1 390.1 217.5 388.0 L 224.5 387.0 L 238.5 397.0 L 248.5 380.0 L 253.0 377.5 Q 256.8 358.3 269.5 348.0 L 275.0 344.5 L 274.5 343.0 Q 254.1 341.9 244.0 330.5 L 244.0 322.5 L 243.0 318.5 L 241.0 312.5 L 241.0 310.5 Q 237.6 302.9 239.0 290.5 L 241.5 282.0 L 243.0 281.5 L 243.5 279.0 L 247.0 276.5 L 254.5 268.0 L 265.5 263.0 L 267.5 264.0 L 282.5 261.0 L 292.5 264.0 Q 302.4 267.1 308.0 274.5 L 313.5 284.0 Q 313.2 276.2 317.5 273.0 L 327.0 268.5 L 329.0 222.5 L 329.5 212.0 L 330.5 205.0 Z" /><path desc="l 0 p 1" fill="rgb(0,0,0)" stroke="rgb(0,0,0)" stroke-width="1" opacity="0.01568627450980392" d="M 273.5 264.0 L 279.0 264.5 L 276.5 268.0 Q 268.8 269.2 265.0 266.5 L 273.5 264.0 Z" /><path desc="l 0 p 2" fill="rgb(0,0,0)" stroke="rgb(0,0,0)" stroke-width="1" opacity="0.01568627450980392" d="M 282.5 264.0 L 288.5 266.0 L 296.0 271.5 L 287.5 276.0 L 278.0 269.5 L 282.5 264.0 Z" /><path desc="l 0 p 3" fill="rgb(0,0,0)" stroke="rgb(0,0,0)" stroke-width="1" opacity="0.01568627450980392" d="M 259.5 267.0 L 263.0 267.5 L 259.5 272.0 L 248.5 279.0 L 248.0 277.5 L 259.5 267.0 Z" /><path desc="l 0 p 4" fill="rgb(0,0,0)" stroke="rgb(0,0,0)" stroke-width="1" opacity="0.01568627450980392" d="M 294.5 267.0 L 299.0 269.5 L 297.5 270.0 L 294.5 267.0 Z" /><path desc="l 0 p 5" fill="rgb(0,0,0)" stroke="rgb(0,0,0)" stroke-width="1" opacity="0.01568627450980392" d="M 337.5 268.0 L 338.0 273.5 L 335.5 274.0 L 334.0 273.5 Q 333.3 269.8 335.5 269.0 L 337.5 268.0 Z" /><path desc="l 0 p 6" fill="rgb(0,0,0)" stroke="rgb(0,0,0)" stroke-width="1" opacity="0.01568627450980392" d="M 264.5 269.0 L 275.0 270.5 L 271.5 278.0 L 262.0 275.5 Q 261.4 270.4 264.5 269.0 Z" /><path desc="l 0 p 7" fill="rgb(0,0,0)" stroke="rgb(0,0,0)" stroke-width="1" opacity="0.01568627450980392" d="M 277.5 272.0 L 287.0 277.5 L 283.5 284.0 L 276.5 283.0 L 273.0 281.5 L 277.5 272.0 Z" /><path desc="l 0 p 8" fill="rgb(0,0,0)" stroke="rgb(0,0,0)" stroke-width="1" opacity="0.01568627450980392" d="M 300.5 272.0 L 303.5 273.0 L 307.0 276.5 L 313.0 288.5 L 313.0 290.5 L 312.5 294.0 L 310.0 293.5 L 305.0 278.5 L 300.5 272.0 Z" /><path desc="l 0 p 9" fill="rgb(0,0,0)" stroke="rgb(0,0,0)" stroke-width="1" opacity="0.01568627450980392" d="M 259.5 274.0 L 260.0 275.5 L 259.0 278.5 Q 259.5 282.5 256.5 283.0 L 247.5 288.0 L 246.0 282.5 L 259.5 274.0 Z" /><path desc="l 0 p 10" fill="rgb(0,0,0)" stroke="rgb(0,0,0)" stroke-width="1" opacity="0.01568627450980392" d="M 296.5 274.0 Q 300.5 273.5 301.0 276.5 Q 306.4 282.6 308.0 292.5 L 301.5 293.0 Q 300.6 285.4 295.5 282.0 L 291.0 279.5 L 292.5 277.0 L 296.5 274.0 Z" /><path desc="l 0 p 11" fill="rgb(0,0,0)" stroke="rgb(0,0,0)" stroke-width="1" opacity="0.01568627450980392" d="M 336.5 275.0 L 338.0 281.5 L 336.5 282.0 L 335.0 281.5 L 334.5 283.0 L 334.0 281.5 L 336.5 275.0 Z" /><path desc="l 0 p 12" fill="rgb(0,0,0)" stroke="rgb(0,0,0)" stroke-width="1" opacity="0.01568627450980392" d="M 333.5 277.0 L 334.0 279.5 L 332.5 283.0 L 331.0 282.5 L 331.5 279.0 L 333.0 279.5 L 333.5 277.0 Z" /><path desc="l 0 p 13" fill="rgb(0,0,0)" stroke="rgb(0,0,0)" stroke-width="1" opacity="0.01568627450980392" d="M 261.5 278.0 L 271.0 280.5 L 269.5 285.0 L 264.5 284.0 L 260.5 285.0 L 260.0 283.5 L 261.0 280.5 L 261.5 278.0 Z" /><path desc="l 0 p 14" fill="rgb(0,0,0)" stroke="rgb(0,0,0)" stroke-width="1" opacity="0.01568627450980392" d="M 328.5 280.0 L 330.0 280.5 L 329.5 284.0 L 324.0 285.5 L 327.5 286.0 L 329.5 285.0 L 330.5 289.0 L 331.5 284.0 L 333.0 284.5 L 333.5 289.0 L 334.5 284.0 L 337.5 283.0 L 337.5 284.0 L 336.0 284.5 L 334.5 290.0 L 330.0 290.5 L 332.0 291.5 L 328.5 293.0 L 327.5 289.0 L 324.5 288.0 L 323.0 288.5 L 324.0 286.5 L 323.0 283.5 L 323.5 281.0 L 328.5 280.0 Z" /><path desc="l 0 p 15" fill="rgb(0,0,0)" stroke="rgb(0,0,0)" stroke-width="1" opacity="0.01568627450980392" d="M 289.5 281.0 L 297.0 286.5 L 299.0 292.5 L 295.5 293.0 L 291.5 283.0 L 288.0 284.5 L 290.0 290.5 L 283.5 292.0 L 284.0 290.5 Q 284.9 283.9 289.5 281.0 Z" /><path desc="l 0 p 16" fill="rgb(0,0,0)" stroke="rgb(0,0,0)" stroke-width="1" opacity="0.01568627450980392" d="M 243.5 284.0 L 248.0 295.5 L 241.5 301.0 L 241.0 290.5 L 243.5 284.0 Z" /><path desc="l 0 p 17" fill="rgb(0,0,0)" stroke="rgb(0,0,0)" stroke-width="1" opacity="0.01568627450980392" d="M 257.5 284.0 L 258.0 291.5 L 250.5 298.0 L 248.0 290.5 L 257.5 284.0 Z" /><path desc="l 0 p 18" fill="rgb(0,0,0)" stroke="rgb(0,0,0)" stroke-width="1" opacity="0.01568627450980392" d="M 272.5 284.0 L 282.0 286.5 L 280.5 289.0 L 270.5 292.0 L 270.0 289.5 L 272.5 284.0 Z" /><path desc="l 0 p 19" fill="rgb(0,0,0)" stroke="rgb(0,0,0)" stroke-width="1" opacity="0.01568627450980392" d="M 265.5 286.0 L 269.0 287.5 L 267.0 293.5 Q 267.8 297.3 265.5 298.0 L 262.0 297.5 Q 259.7 294.3 261.0 287.5 L 265.5 286.0 Z" /><path desc="l 0 p 20" fill="rgb(0,0,0)" stroke="rgb(0,0,0)" stroke-width="1" opacity="0.01568627450980392" d="M 279.5 291.0 L 280.0 293.5 L 272.0 300.5 L 270.5 304.0 L 270.0 298.5 L 269.0 294.5 L 279.5 291.0 Z" /><path desc="l 0 p 21" fill="rgb(0,0,0)" stroke="rgb(0,0,0)" stroke-width="1" opacity="0.01568627450980392" d="M 324.5 292.0 L 326.5 297.0 L 328.0 297.5 L 327.5 310.0 L 324.0 321.5 Q 320.7 336.2 312.5 346.0 L 305.0 340.5 L 304.0 338.5 L 312.0 329.5 L 320.0 311.5 L 324.5 292.0 Z" /><path desc="l 0 p 22" fill="rgb(0,0,0)" stroke="rgb(0,0,0)" stroke-width="1" opacity="0.01568627450980392" d="M 258.5 294.0 L 260.0 300.5 L 252.5 306.0 L 251.0 300.5 L 258.5 294.0 Z" /><path desc="l 0 p 23" fill="rgb(0,0,0)" stroke="rgb(0,0,0)" stroke-width="1" opacity="0.01568627450980392" d="M 287.5 295.0 L 292.0 295.5 L 293.0 302.5 L 292.0 305.5 Q 291.9 311.9 287.5 314.0 Q 282.7 318.2 272.5 317.0 L 272.0 310.5 L 278.5 299.0 L 287.5 295.0 Z" /><path desc="l 0 p 24" fill="rgb(0,0,0)" stroke="rgb(0,0,0)" stroke-width="1" opacity="0.01568627450980392" d="M 317.5 295.0 L 322.0 295.5 L 318.0 309.5 Q 316.1 320.6 310.5 328.0 L 301.0 340.5 L 305.0 345.5 L 301.5 346.0 L 301.5 344.0 L 299.0 344.5 L 300.0 346.5 Q 298.8 350.3 292.5 349.0 L 289.0 347.5 L 288.5 346.0 L 287.5 348.0 L 285.0 347.5 L 284.5 346.0 L 282.0 346.5 L 282.5 350.0 L 292.0 352.5 L 291.5 354.0 L 289.0 354.5 L 290.0 358.5 L 287.0 359.5 L 289.0 360.5 L 286.5 361.0 L 281.5 359.0 L 276.5 358.0 L 276.5 359.0 L 278.0 359.5 L 269.5 366.0 L 268.0 365.5 L 267.5 368.0 L 261.5 372.0 L 260.5 370.0 L 258.5 375.0 L 256.5 376.0 L 256.0 372.5 L 258.5 368.0 L 260.0 367.5 L 259.0 365.5 L 267.5 353.0 L 269.0 353.5 L 271.5 349.0 L 277.5 346.0 L 279.5 349.0 L 280.0 346.5 L 277.0 342.5 L 283.5 341.0 L 285.0 341.5 L 285.5 340.0 L 289.5 339.0 L 291.0 339.5 L 291.5 338.0 L 294.5 337.0 L 295.5 339.0 L 296.5 336.0 L 306.0 330.5 L 314.0 315.5 L 316.0 308.5 L 317.5 295.0 Z" /><path desc="l 0 p 25" fill="rgb(0,0,0)" stroke="rgb(0,0,0)" stroke-width="1" opacity="0.01568627450980392" d="M 296.5 296.0 L 300.0 296.5 L 299.5 307.0 L 296.0 305.5 L 297.0 300.5 L 296.5 296.0 Z" /><path desc="l 0 p 26" fill="rgb(0,0,0)" stroke="rgb(0,0,0)" stroke-width="1" opacity="0.01568627450980392" d="M 302.5 296.0 L 308.0 296.5 Q 309.3 305.8 305.5 310.0 L 301.0 307.5 L 302.0 303.5 L 302.5 296.0 Z" /><path desc="l 0 p 27" fill="rgb(0,0,0)" stroke="rgb(0,0,0)" stroke-width="1" opacity="0.01568627450980392" d="M 310.5 297.0 L 314.0 297.5 L 313.5 306.0 L 310.5 314.0 Q 307.5 313.5 308.0 309.5 Q 310.9 304.9 310.5 297.0 Z" /><path desc="l 0 p 28" fill="rgb(0,0,0)" stroke="rgb(0,0,0)" stroke-width="1" opacity="0.01568627450980392" d="M 247.5 298.0 L 249.0 298.5 L 250.0 305.5 L 248.5 306.0 L 241.0 303.5 L 247.5 298.0 Z" /><path desc="l 0 p 29" fill="rgb(0,0,0)" stroke="rgb(0,0,0)" stroke-width="1" opacity="0.01568627450980392" d="M 266.5 299.0 L 267.0 309.5 L 268.0 316.5 L 266.0 317.5 L 262.0 300.5 L 266.5 299.0 Z" /><path desc="l 0 p 30" fill="rgb(0,0,0)" stroke="rgb(0,0,0)" stroke-width="1" opacity="0.01568627450980392" d="M 390.5 300.0 L 397.0 304.5 L 397.0 306.5 Q 399.1 318.1 394.5 323.0 L 393.0 322.5 L 393.5 318.0 L 395.0 317.5 L 393.0 316.5 L 392.5 312.0 L 391.0 318.5 Q 393.3 319.8 392.0 324.5 L 392.0 326.5 L 393.0 332.5 L 392.0 332.5 L 391.5 331.0 L 391.0 334.5 L 392.0 336.5 L 383.5 339.0 L 382.5 337.0 L 381.5 339.0 L 366.5 342.0 L 365.5 340.0 L 364.5 342.0 L 362.0 341.5 L 363.5 335.0 L 365.0 334.5 L 363.0 333.5 L 362.0 328.5 Q 364.5 327.0 361.0 325.5 L 359.0 320.5 L 361.0 319.5 L 356.0 317.5 L 356.5 315.0 L 370.5 310.0 L 372.0 310.5 L 373.5 308.0 L 381.5 305.0 L 390.5 300.0 Z" /><path desc="l 0 p 31" fill="rgb(0,0,0)" stroke="rgb(0,0,0)" stroke-width="1" opacity="0.01568627450980392" d="M 260.5 303.0 L 264.0 315.5 L 266.0 328.5 Q 264.5 331.5 258.5 330.0 L 256.0 328.5 L 255.0 323.5 L 256.5 323.0 L 258.5 326.0 L 262.0 324.5 Q 259.5 314.5 253.0 308.5 L 260.5 303.0 Z" /><path desc="l 0 p 32" fill="rgb(0,0,0)" stroke="rgb(0,0,0)" stroke-width="1" opacity="0.01568627450980392" d="M 296.5 308.0 L 298.0 310.5 L 288.5 321.0 L 286.0 319.5 L 294.0 313.5 L 296.5 308.0 Z" /><path desc="l 0 p 33" fill="rgb(0,0,0)" stroke="rgb(0,0,0)" stroke-width="1" opacity="0.01568627450980392" d="M 243.5 309.0 Q 249.9 309.1 252.0 313.5 L 253.0 318.5 L 251.5 318.0 L 243.0 312.5 L 243.5 309.0 Z" /><path desc="l 0 p 34" fill="rgb(0,0,0)" stroke="rgb(0,0,0)" stroke-width="1" opacity="0.01568627450980392" d="M 300.5 310.0 L 305.0 312.5 L 303.0 317.5 L 297.5 325.0 L 291.0 321.5 L 291.5 320.0 L 298.0 314.5 L 300.5 310.0 Z" /><path desc="l 0 p 35" fill="rgb(0,0,0)" stroke="rgb(0,0,0)" stroke-width="1" opacity="0.01568627450980392" d="M 307.5 314.0 L 310.0 317.5 L 303.5 328.0 L 300.0 326.5 L 307.5 314.0 Z" /><path desc="l 0 p 36" fill="rgb(0,0,0)" stroke="rgb(0,0,0)" stroke-width="1" opacity="0.01568627450980392" d="M 351.5 317.0 Q 355.5 316.5 356.0 319.5 Q 361.7 326.3 361.0 339.5 L 359.5 343.0 L 354.0 341.5 L 353.5 330.0 L 352.0 330.5 L 351.5 342.0 L 350.0 350.5 Q 347.5 361.0 340.5 367.0 L 339.5 364.0 L 339.0 367.5 L 339.5 369.0 L 338.0 368.5 L 336.5 371.0 L 327.5 372.0 Q 321.5 372.0 318.5 375.0 L 319.0 373.5 L 322.0 367.5 Q 324.5 364.0 323.0 356.5 L 318.0 352.5 L 315.0 348.5 L 316.5 348.0 L 321.0 352.5 Q 321.8 354.8 325.5 354.0 Q 330.9 333.4 343.5 320.0 L 351.5 317.0 Z" /><path desc="l 0 p 37" fill="rgb(0,0,0)" stroke="rgb(0,0,0)" stroke-width="1" opacity="0.01568627450980392" d="M 246.5 320.0 L 254.0 324.5 L 253.5 328.0 L 246.0 321.5 L 246.5 320.0 Z" /><path desc="l 0 p 38" fill="rgb(0,0,0)" stroke="rgb(0,0,0)" stroke-width="1" opacity="0.01568627450980392" d="M 281.5 320.0 L 289.0 323.5 L 278.5 326.0 L 272.0 321.5 L 277.5 321.0 L 281.5 320.0 Z" /><path desc="l 0 p 39" fill="rgb(0,0,0)" stroke="rgb(0,0,0)" stroke-width="1" opacity="0.01568627450980392" d="M 268.5 324.0 L 271.0 324.5 L 273.0 327.5 Q 272.3 329.8 268.5 329.0 L 268.5 324.0 Z" /><path desc="l 0 p 40" fill="rgb(0,0,0)" stroke="rgb(0,0,0)" stroke-width="1" opacity="0.01568627450980392" d="M 291.5 324.0 L 296.0 326.5 L 290.5 330.0 L 283.5 333.0 L 281.0 328.5 L 291.5 324.0 Z" /><path desc="l 0 p 41" fill="rgb(0,0,0)" stroke="rgb(0,0,0)" stroke-width="1" opacity="0.01568627450980392" d="M 393.5 324.0 L 395.0 324.5 L 393.5 330.0 L 393.5 324.0 Z" /><path desc="l 0 p 42" fill="rgb(0,0,0)" stroke="rgb(0,0,0)" stroke-width="1" opacity="0.01568627450980392" d="M 246.5 325.0 L 255.0 331.5 L 254.5 336.0 L 246.0 329.5 L 246.5 325.0 Z" /><path desc="l 0 p 43" fill="rgb(0,0,0)" stroke="rgb(0,0,0)" stroke-width="1" opacity="0.01568627450980392" d="M 274.5 325.0 L 281.0 332.5 L 279.5 332.0 L 276.0 329.5 L 274.5 325.0 Z" /><path desc="l 0 p 44" fill="rgb(0,0,0)" stroke="rgb(0,0,0)" stroke-width="1" opacity="0.01568627450980392" d="M 296.5 328.0 L 302.0 329.5 L 299.5 333.0 L 285.5 338.0 L 284.0 335.5 L 288.5 333.0 Q 294.5 332.5 296.5 328.0 Z" /><path desc="l 0 p 45" fill="rgb(0,0,0)" stroke="rgb(0,0,0)" stroke-width="1" opacity="0.01568627450980392" d="M 272.5 330.0 L 275.0 330.5 L 276.5 333.0 L 281.0 336.5 L 281.5 338.0 L 283.0 338.5 L 270.5 341.0 L 269.0 331.5 L 272.5 330.0 Z" /><path desc="l 0 p 46" fill="rgb(0,0,0)" stroke="rgb(0,0,0)" stroke-width="1" opacity="0.01568627450980392" d="M 257.5 331.0 Q 259.0 333.5 264.5 332.0 L 266.5 331.0 L 268.0 339.5 L 265.5 340.0 L 257.0 336.5 L 257.5 331.0 Z" /><path desc="l 0 p 47" fill="rgb(0,0,0)" stroke="rgb(0,0,0)" stroke-width="1" opacity="0.01568627450980392" d="M 307.5 345.0 L 310.0 346.5 L 307.5 348.0 L 307.5 345.0 Z" /><path desc="l 0 p 48" fill="rgb(0,0,0)" stroke="rgb(0,0,0)" stroke-width="1" opacity="0.01568627450980392" d="M 296.5 354.0 L 299.0 354.5 L 296.0 356.5 L 295.5 358.0 L 293.0 357.5 L 294.5 355.0 L 296.0 355.5 L 296.5 354.0 Z" /><path desc="l 0 p 49" fill="rgb(0,0,0)" stroke="rgb(0,0,0)" stroke-width="1" opacity="0.01568627450980392" d="M 312.5 354.0 L 316.0 355.5 L 315.5 357.0 L 317.0 357.5 L 318.0 359.5 L 316.5 362.0 Q 313.2 365.2 305.5 364.0 L 304.5 362.0 L 301.5 361.0 L 300.5 363.0 L 304.0 363.5 L 298.5 364.0 L 297.0 360.5 Q 297.5 357.5 301.5 358.0 L 308.0 359.5 L 308.5 361.0 L 310.5 362.0 L 311.0 360.5 L 309.0 359.5 L 309.5 358.0 L 312.0 356.5 L 312.5 354.0 Z" /><path desc="l 0 p 50" fill="rgb(0,0,0)" stroke="rgb(0,0,0)" stroke-width="1" opacity="0.01568627450980392" d="M 321.5 358.0 L 322.0 362.5 Q 317.7 374.7 309.5 383.0 L 298.5 382.0 Q 289.7 381.8 285.0 377.5 L 286.0 372.5 L 284.5 369.0 L 283.0 369.5 L 284.0 376.5 L 282.5 377.0 L 279.0 374.5 L 280.0 371.5 L 278.5 371.0 L 277.5 373.0 L 275.0 374.5 Q 277.5 376.0 274.0 377.5 L 271.5 381.0 L 266.5 384.0 L 262.5 377.0 Q 259.8 378.3 262.0 379.5 L 264.0 385.5 Q 261.4 396.4 254.5 403.0 L 249.0 400.5 L 248.0 394.5 L 250.0 389.5 Q 251.3 382.8 255.5 379.0 L 271.0 367.5 L 276.5 363.0 L 281.5 361.0 L 295.5 365.0 Q 301.8 367.8 312.5 366.0 L 320.0 360.5 L 321.5 358.0 Z" /><path desc="l 0 p 51" fill="rgb(0,0,0)" stroke="rgb(0,0,0)" stroke-width="1" opacity="0.01568627450980392" d="M 293.5 359.0 L 295.0 359.5 L 294.5 363.0 L 290.0 361.5 L 293.0 360.5 L 293.5 359.0 Z" /><path desc="l 0 p 52" fill="rgb(0,0,0)" stroke="rgb(0,0,0)" stroke-width="1" opacity="0.01568627450980392" d="M 250.5 382.0 L 250.0 383.5 L 247.0 392.5 L 246.0 398.5 L 247.5 406.0 L 248.5 402.0 L 251.0 404.5 L 251.0 406.5 L 246.5 411.0 L 243.5 413.0 L 242.0 412.5 L 239.5 415.0 L 237.5 416.0 L 236.0 412.5 L 237.0 412.5 L 237.5 414.0 L 239.0 410.5 L 237.5 411.0 L 234.5 410.0 L 232.5 414.0 L 229.0 413.5 L 229.5 409.0 Q 232.7 406.7 239.5 408.0 Q 241.0 410.5 242.5 407.0 L 244.0 406.5 L 241.5 405.0 L 239.5 405.0 L 231.5 406.0 L 230.5 404.0 L 225.5 412.0 L 223.0 411.5 L 225.0 410.5 L 223.0 409.5 L 222.5 408.0 L 221.5 411.0 L 218.0 408.5 L 219.0 403.5 Q 216.3 401.8 218.0 395.5 L 219.5 395.0 L 220.0 398.5 L 219.5 400.0 L 221.0 400.5 L 220.5 402.0 L 219.0 402.5 L 221.0 403.5 L 221.5 408.0 L 222.5 403.0 L 224.0 402.5 L 222.0 401.5 L 222.5 400.0 L 225.0 400.5 L 225.0 402.5 L 225.5 405.0 L 226.5 402.0 L 230.0 401.5 L 226.0 400.5 L 231.0 399.5 L 226.0 398.5 L 225.5 397.0 L 224.5 399.0 L 221.0 398.5 L 221.5 395.0 L 224.0 395.5 L 224.5 397.0 L 226.0 394.5 L 220.0 393.5 L 219.5 391.0 L 218.5 394.0 L 218.0 391.5 L 220.5 388.0 L 228.0 391.5 L 236.0 397.5 L 234.0 398.5 L 238.5 401.0 L 244.5 390.0 L 245.5 392.0 L 246.0 389.5 L 246.0 387.5 L 250.5 382.0 Z" /></svg>