<svg width="624" height="601" version="1.1" xmlns="http://www.w3.org/2000/svg" desc="Created with ImageTracer.java version 1.1.2" ><path desc="l 0 p 0" fill="rgb(0,0,0)" stroke="rgb(0,0,0)" stroke-width="1" opacity="0.0" d="M 0.5 0.0 L 624.0 0.5 L 623.5 601.0 L 0.0 600.5 L 0.5 0.0 Z" /><path desc="l 7 p 0" fill="rgb(105,0,54)" stroke="rgb(105,0,54)" stroke-width="1" opacity="1.0" d="M 332.5 207.0 L 333.5 213.0 L 336.0 212.5 L 336.5 208.0 L 338.0 216.5 Q 334.1 219.1 335.0 226.5 L 337.0 230.5 L 334.0 236.5 Q 331.7 239.7 333.0 246.5 L 337.0 249.5 L 333.5 253.0 L 332.0 256.5 L 334.0 257.5 Q 330.2 260.7 332.0 269.5 L 333.5 269.0 Q 337.3 268.3 338.0 270.5 L 341.0 287.5 L 333.0 294.5 L 329.0 305.5 L 328.0 312.5 L 327.5 317.0 L 325.0 325.5 Q 320.7 329.2 320.5 337.0 L 319.0 337.5 Q 316.5 341.0 318.0 348.5 L 319.5 349.0 L 325.0 344.5 Q 326.3 337.8 330.5 334.0 L 341.5 320.0 L 364.5 312.0 Q 372.7 310.2 377.5 305.0 L 386.0 300.5 Q 388.1 298.1 393.5 299.0 L 401.0 304.5 L 402.0 319.5 L 395.5 336.0 L 393.0 337.5 L 391.5 340.0 L 377.5 343.0 L 371.5 344.0 Q 359.6 342.1 354.0 346.5 L 348.0 358.5 Q 344.9 366.9 338.0 371.5 L 367.0 379.5 L 367.5 381.0 L 376.5 381.0 L 380.5 380.0 L 384.5 381.0 Q 392.4 380.1 394.0 385.5 L 393.5 396.0 L 392.5 404.0 L 391.0 404.5 L 390.5 410.0 L 388.5 418.0 L 382.5 420.0 L 356.5 408.0 L 339.5 402.0 L 328.5 399.0 Q 317.5 397.5 312.0 390.5 L 308.5 385.0 L 305.5 386.0 L 297.5 386.0 L 282.0 380.5 L 275.5 379.0 L 269.0 384.5 L 265.0 394.5 Q 262.4 401.9 256.5 406.0 L 255.0 406.5 L 249.5 414.0 L 237.0 417.5 L 226.5 418.0 L 218.0 414.5 Q 213.3 410.7 215.0 400.5 L 220.5 386.0 L 239.5 397.0 L 250.0 376.5 L 261.5 358.0 L 270.0 349.5 Q 273.8 348.8 273.0 343.5 L 264.5 343.0 Q 259.8 343.8 258.0 341.5 Q 250.0 340.0 246.0 334.5 Q 243.0 330.5 243.0 323.5 L 243.0 321.5 L 242.0 317.5 L 240.0 312.5 Q 236.6 304.9 238.0 292.5 Q 240.5 278.0 250.5 271.0 L 261.0 264.5 Q 264.2 261.2 271.5 262.0 L 280.5 261.0 Q 282.0 263.5 287.5 262.0 Q 300.6 263.9 308.0 271.5 L 311.0 276.5 L 313.0 282.5 L 315.5 291.0 L 317.0 290.5 Q 318.3 283.7 316.0 280.5 L 313.0 274.5 L 327.0 268.5 L 330.0 243.5 L 331.0 225.5 L 332.0 214.5 L 332.0 212.5 L 332.5 207.0 Z" /><path desc="l 0 p 1" fill="rgb(0,0,0)" stroke="rgb(0,0,0)" stroke-width="1" opacity="0.0" d="M 337.5 285.0 L 336.5 287.0 L 337.5 285.0 Z" /><path desc="l 0 p 2" fill="rgb(0,0,0)" stroke="rgb(0,0,0)" stroke-width="1" opacity="0.0" d="M 326.5 290.0 L 326.0 291.5 L 325.5 293.0 L 324.0 292.5 L 326.5 290.0 Z" /><path desc="l 14 p 0" fill="rgb(255,255,255)" stroke="rgb(255,255,255)" stroke-width="1" opacity="1.0" d="M 290.5 293.0 L 293.0 293.5 L 293.0 302.5 Q 294.0 307.0 291.5 308.0 L 290.0 308.5 L 291.0 310.5 Q 288.0 315.5 280.5 316.0 L 269.5 316.0 L 270.0 314.5 Q 271.8 304.3 278.5 299.0 L 290.5 293.0 Z" /><path desc="l 0 p 3" fill="rgb(0,0,0)" stroke="rgb(0,0,0)" stroke-width="1" opacity="0.0" d="M 323.5 294.0 L 325.0 294.5 L 322.5 302.0 L 322.0 298.5 L 323.5 294.0 Z" /><path desc="l 14 p 1" fill="rgb(255,255,255)" stroke="rgb(255,255,255)" stroke-width="1" opacity="1.0" d="M 244.5 310.0 Q 251.9 311.1 255.0 316.5 L 256.0 319.5 L 250.5 320.0 L 245.0 316.5 L 244.5 310.0 Z" /><path desc="l 0 p 4" fill="rgb(0,0,0)" stroke="rgb(0,0,0)" stroke-width="1" opacity="0.0" d="M 315.5 320.0 L 314.0 322.5 Q 310.4 331.4 303.5 337.0 L 303.0 335.5 L 315.5 320.0 Z" /><path desc="l 0 p 5" fill="rgb(0,0,0)" stroke="rgb(0,0,0)" stroke-width="1" opacity="0.0" d="M 303.5 338.0 L 304.0 340.5 L 303.0 340.5 L 303.5 338.0 Z" /><path desc="l 0 p 6" fill="rgb(0,0,0)" stroke="rgb(0,0,0)" stroke-width="1" opacity="0.0" d="M 323.5 359.0 L 324.0 365.5 L 323.0 365.5 L 323.5 359.0 Z" /><path desc="l 0 p 7" fill="rgb(0,0,0)" stroke="rgb(0,0,0)" stroke-width="1" opacity="0.0" d="M 279.5 361.0 L 285.0 362.5 L 276.5 363.0 L 276.5 362.0 L 279.5 361.0 Z" /><path desc="l 0 p 8" fill="rgb(0,0,0)" stroke="rgb(0,0,0)" stroke-width="1" opacity="0.0" d="M 268.5 368.0 L 267.5 370.0 L 268.5 368.0 Z" /><path desc="l 0 p 9" fill="rgb(0,0,0)" stroke="rgb(0,0,0)" stroke-width="1" opacity="0.0" d="M 254.5 379.0 L 253.5 381.0 L 254.5 379.0 Z" /><path desc="l 0 p 10" fill="rgb(0,0,0)" stroke="rgb(0,0,0)" stroke-width="1" opacity="0.0" d="M 350.5 381.0 L 349.5 383.0 L 350.5 381.0 Z" /><path desc="l 0 p 11" fill="rgb(0,0,0)" stroke="rgb(0,0,0)" stroke-width="1" opacity="0.0" d="M 348.5 384.0 L 347.5 386.0 L 348.5 384.0 Z" /></svg>