<svg width="624" height="601" version="1.1" xmlns="http://www.w3.org/2000/svg" desc="Created with ImageTracer.java version 1.1.2" ><path desc="l 1 p 0" fill="rgb(0,0,0)" stroke="rgb(0,0,0)" stroke-width="1" opacity="0.0" d="M 0.5 0.0 L 624.0 0.5 L 623.5 601.0 L 0.0 600.5 L 0.5 0.0 Z" /><path desc="l 7 p 0" fill="rgb(118,99,101)" stroke="rgb(118,99,101)" stroke-width="1" opacity="1.0" d="M 320.5 202.0 L 338.5 202.0 L 350.5 203.0 L 366.5 205.0 L 383.5 209.0 L 399.0 212.5 L 406.5 215.0 L 415.5 217.0 L 434.5 223.0 Q 443.4 225.6 449.0 231.5 L 463.0 245.5 Q 478.1 264.9 486.0 291.5 L 489.0 305.5 L 490.0 317.5 Q 488.8 322.3 491.0 323.5 L 491.0 384.5 L 485.5 413.0 Q 482.8 428.8 476.5 441.0 L 464.0 465.5 L 467.0 474.5 L 468.0 482.5 L 468.0 500.5 L 465.5 509.0 L 461.0 520.5 L 457.5 528.0 L 450.5 538.0 L 430.0 548.5 L 415.5 553.0 L 397.5 555.0 L 393.5 554.0 L 385.5 553.0 Q 371.5 549.5 362.5 541.0 L 349.5 530.0 Q 345.4 538.9 337.5 544.0 L 328.0 548.5 L 310.5 553.0 L 298.5 554.0 L 274.5 554.0 L 260.0 548.5 Q 246.9 543.1 239.0 532.5 Q 230.5 521.5 228.5 504.0 L 227.0 481.5 Q 231.9 475.4 232.5 465.0 L 234.0 454.5 Q 232.8 449.8 235.0 448.5 L 234.0 446.5 L 237.0 441.5 L 243.5 435.0 L 245.0 435.5 L 243.5 439.0 L 240.0 439.5 Q 238.0 449.0 242.0 452.5 L 237.0 464.5 L 235.0 476.5 L 234.0 486.5 L 234.0 504.5 L 236.0 510.5 Q 237.0 522.5 244.5 528.0 L 254.5 539.0 L 268.5 547.0 Q 272.8 550.2 280.5 550.0 L 294.5 550.0 Q 295.8 547.8 300.5 549.0 L 311.5 548.0 L 319.0 546.5 Q 335.5 543.5 344.0 532.5 L 347.0 528.5 Q 337.2 499.3 316.5 481.0 Q 298.8 463.8 273.5 454.0 L 245.0 442.5 L 252.0 437.5 L 250.0 436.5 L 258.0 429.5 L 258.5 428.0 L 260.0 427.5 Q 257.8 426.3 260.5 425.0 L 262.5 426.0 Q 269.0 419.5 279.5 417.0 L 289.5 415.0 L 304.5 415.0 L 337.0 421.5 L 342.5 423.0 L 350.5 424.0 Q 366.9 413.4 388.5 408.0 L 394.5 406.0 L 402.5 405.0 L 413.5 409.0 L 419.0 411.5 L 428.5 417.0 L 434.0 420.5 L 442.5 429.0 L 443.0 427.5 L 439.0 420.5 L 440.5 421.0 L 450.5 424.0 L 447.5 420.0 Q 437.6 410.4 421.0 407.5 L 403.5 404.0 Q 396.0 401.5 384.5 403.0 Q 377.2 407.2 366.5 408.0 L 356.0 409.5 L 340.5 410.0 L 335.5 409.0 L 326.0 408.5 L 286.5 408.0 Q 285.3 410.3 280.5 409.0 Q 276.0 408.0 275.0 410.5 L 266.0 414.5 L 261.5 420.0 L 256.0 421.5 L 253.5 425.0 L 250.5 427.0 L 254.0 422.5 L 256.0 413.5 L 253.5 413.0 L 239.0 422.5 L 234.5 438.0 Q 233.9 409.6 223.5 391.0 L 210.5 369.0 L 198.0 345.5 L 187.0 321.5 L 180.5 307.0 Q 176.5 301.0 178.0 289.5 Q 183.1 273.1 194.5 263.0 L 208.5 249.0 L 242.5 224.0 L 253.0 218.5 L 263.5 214.0 L 279.5 209.0 L 286.5 207.0 L 295.0 205.5 L 314.5 203.0 Q 319.3 204.3 320.5 202.0 Z" /><path desc="l 0 p 0" fill="rgb(245,219,152)" stroke="rgb(245,219,152)" stroke-width="1" opacity="1.0" d="M 297.5 220.0 Q 320.6 216.9 330.0 227.5 L 332.5 232.0 Q 340.9 231.1 345.5 234.0 Q 352.1 234.4 355.0 238.5 L 359.5 246.0 Q 360.8 243.8 362.0 246.5 L 385.5 275.0 L 401.0 275.5 Q 408.8 275.2 413.0 278.5 L 413.5 280.0 Q 424.2 282.3 429.0 290.5 L 432.0 297.5 L 433.0 304.5 L 431.0 303.5 L 421.5 291.0 Q 408.6 283.9 390.5 282.0 L 375.5 281.0 L 376.0 282.5 L 384.0 298.5 L 394.5 317.0 L 396.5 318.0 L 398.5 317.0 L 414.5 327.0 Q 424.7 332.3 431.0 341.5 Q 434.0 344.5 433.0 351.5 L 427.5 358.0 L 426.0 357.5 Q 428.8 355.8 427.0 349.5 L 424.5 344.0 L 418.5 338.0 L 410.5 334.0 L 408.0 338.5 Q 417.8 347.2 423.5 360.0 L 425.0 359.5 L 424.0 361.5 L 427.0 370.5 L 424.0 369.5 L 424.0 378.5 L 423.0 384.5 L 418.5 397.0 Q 406.0 389.0 390.0 384.5 L 375.5 355.0 L 373.5 359.0 L 367.0 354.5 Q 371.2 350.7 370.0 341.5 Q 368.5 338.5 367.0 341.5 Q 368.8 347.8 366.0 349.5 L 364.5 354.0 L 357.5 352.0 L 347.5 350.0 L 331.0 348.5 L 332.5 340.0 L 333.0 325.5 L 332.0 320.5 Q 330.1 311.9 324.5 307.0 L 322.0 307.5 Q 327.0 312.5 328.5 321.0 L 330.0 327.5 L 330.0 339.5 L 327.5 349.0 L 309.5 350.0 Q 299.8 351.8 295.0 358.5 Q 291.2 361.7 291.5 369.0 L 285.0 363.5 L 283.0 360.5 L 286.5 348.0 L 294.5 349.0 L 299.0 345.5 L 300.0 339.5 Q 294.3 335.2 292.0 327.5 L 290.0 319.5 L 297.0 314.5 L 290.5 312.0 L 279.0 309.5 L 277.5 305.0 L 277.0 315.5 L 278.0 318.5 L 267.5 330.0 L 264.0 328.5 L 262.5 321.0 Q 260.9 325.9 253.5 325.0 L 249.0 323.5 Q 255.4 323.4 257.0 318.5 L 262.0 309.5 L 260.5 309.0 L 249.5 319.0 L 249.0 313.5 L 252.5 308.0 L 263.0 301.5 L 256.5 294.0 L 256.0 296.5 L 258.0 301.5 L 257.0 301.5 L 251.5 294.0 L 247.0 282.5 L 246.0 273.5 Q 248.5 272.0 247.0 266.5 L 251.0 254.5 L 248.0 251.5 L 248.0 249.5 L 256.5 239.0 Q 266.4 229.9 280.0 224.5 L 279.5 223.0 L 293.5 221.0 L 297.5 220.0 Z" /><path desc="l 0 p 1" fill="rgb(245,219,152)" stroke="rgb(245,219,152)" stroke-width="1" opacity="1.0" d="M 234.5 259.0 L 236.0 262.5 L 236.0 268.5 L 235.5 270.0 L 238.0 272.5 Q 242.5 276.0 241.0 285.5 L 237.5 290.0 L 230.5 292.0 Q 227.8 294.8 221.5 294.0 L 212.0 282.5 L 223.5 260.0 Q 227.5 259.5 228.0 262.5 L 229.5 265.0 L 234.5 259.0 Z" /><path desc="l 7 p 1" fill="rgb(118,99,101)" stroke="rgb(118,99,101)" stroke-width="1" opacity="1.0" d="M 303.5 265.0 Q 311.5 263.5 314.0 267.5 L 315.0 273.5 L 310.0 277.5 Q 307.0 280.5 299.5 279.0 L 298.5 277.0 L 292.0 274.5 L 292.5 273.0 L 294.5 270.0 L 303.5 265.0 Z" /><path desc="l 7 p 2" fill="rgb(118,99,101)" stroke="rgb(118,99,101)" stroke-width="1" opacity="1.0" d="M 260.5 270.0 Q 262.8 271.8 262.0 276.5 L 261.0 276.5 L 260.5 270.0 Z" /><path desc="l 7 p 3" fill="rgb(118,99,101)" stroke="rgb(118,99,101)" stroke-width="1" opacity="1.0" d="M 273.5 283.0 L 278.5 284.0 L 282.0 287.5 L 277.5 295.0 L 274.5 296.0 L 274.5 295.0 L 278.0 293.5 L 274.0 290.5 L 272.5 286.0 L 268.5 291.0 Q 265.8 289.8 268.0 288.5 L 271.5 284.0 L 273.5 283.0 Z" /><path desc="l 7 p 4" fill="rgb(118,99,101)" stroke="rgb(118,99,101)" stroke-width="1" opacity="1.0" d="M 330.5 296.0 L 333.0 304.5 L 328.5 305.0 L 328.0 303.5 Q 330.8 301.3 330.5 296.0 Z" /><path desc="l 7 p 5" fill="rgb(118,99,101)" stroke="rgb(118,99,101)" stroke-width="1" opacity="1.0" d="M 295.5 300.0 Q 303.5 299.0 306.0 303.5 L 307.0 305.5 Q 305.7 309.7 299.5 309.0 L 294.0 301.5 L 295.5 300.0 Z" /><path desc="l 7 p 6" fill="rgb(118,99,101)" stroke="rgb(118,99,101)" stroke-width="1" opacity="1.0" d="M 299.5 312.0 L 298.5 314.0 L 299.5 312.0 Z" /><path desc="l 0 p 2" fill="rgb(245,219,152)" stroke="rgb(245,219,152)" stroke-width="1" opacity="1.0" d="M 334.5 384.0 L 359.0 384.5 L 371.5 386.0 L 382.5 388.0 L 397.0 391.5 L 414.0 397.5 L 412.5 400.0 L 396.0 394.5 L 380.0 390.5 L 358.0 387.5 L 334.5 387.0 L 330.5 388.0 L 322.5 389.0 L 316.5 390.0 L 304.5 393.0 L 293.0 396.5 L 278.0 402.5 L 262.5 410.0 L 262.0 407.5 Q 276.3 397.8 295.0 392.5 L 321.5 386.0 L 329.5 385.0 L 334.5 384.0 Z" /><path desc="l 0 p 3" fill="rgb(245,219,152)" stroke="rgb(245,219,152)" stroke-width="1" opacity="1.0" d="M 384.5 403.0 Q 396.0 401.5 403.5 404.0 L 421.0 407.5 Q 440.3 411.2 451.0 423.5 L 449.5 424.0 L 439.5 420.0 L 439.0 421.5 L 444.0 429.5 L 431.5 418.0 L 422.5 413.0 L 415.0 409.5 L 406.0 406.5 Q 402.9 404.1 396.5 405.0 L 361.5 418.0 L 353.0 422.5 Q 350.9 424.9 345.5 424.0 L 321.5 418.0 L 308.5 416.0 L 300.5 415.0 L 285.5 415.0 Q 268.8 418.8 258.0 428.5 L 257.5 430.0 L 256.0 430.5 L 256.0 432.5 L 249.5 440.0 L 245.0 442.5 L 273.0 453.5 Q 301.5 465.0 321.0 485.5 Q 338.4 502.6 347.0 528.5 L 339.5 537.0 Q 333.7 542.7 324.5 545.0 L 312.5 548.0 L 306.5 549.0 L 276.5 550.0 Q 262.9 546.6 254.0 538.5 L 242.0 524.5 Q 234.0 515.5 234.0 498.5 L 234.0 480.5 L 235.0 476.5 L 236.0 467.5 L 238.5 460.0 L 242.0 452.5 Q 239.4 451.1 240.0 446.5 L 239.5 439.0 L 235.0 442.5 Q 233.7 435.7 236.0 432.5 L 239.5 422.0 L 246.0 417.5 L 255.5 413.0 L 256.0 414.5 L 255.0 417.5 Q 255.6 423.1 252.0 424.5 L 253.5 425.0 L 256.5 421.0 Q 263.8 420.8 266.0 415.5 L 266.5 414.0 L 274.5 411.0 Q 275.5 408.0 280.5 409.0 L 288.5 408.0 L 325.5 408.0 L 330.5 409.0 L 340.0 409.5 L 355.5 410.0 L 364.5 408.0 Q 376.6 407.6 384.5 403.0 Z" /><path desc="l 7 p 7" fill="rgb(118,99,101)" stroke="rgb(118,99,101)" stroke-width="1" opacity="1.0" d="M 343.5 415.0 L 347.0 415.5 L 343.5 416.0 L 343.5 415.0 Z" /><path desc="l 0 p 4" fill="rgb(245,219,152)" stroke="rgb(245,219,152)" stroke-width="1" opacity="1.0" d="M 438.5 431.0 L 441.5 432.0 L 445.5 436.0 L 447.0 435.5 L 447.0 437.5 L 451.0 445.5 L 458.5 466.0 L 462.5 482.0 L 463.0 499.5 L 459.5 507.0 Q 457.3 509.8 458.0 515.5 Q 455.5 524.5 448.5 529.0 L 428.5 541.0 Q 424.0 544.5 416.5 545.0 L 402.5 546.0 L 391.5 544.0 L 383.5 542.0 Q 367.5 539.0 357.0 530.5 Q 356.0 522.0 360.0 518.5 L 368.0 504.5 Q 386.8 472.8 413.5 449.0 L 438.5 431.0 Z" /><path desc="l 0 p 5" fill="rgb(245,219,152)" stroke="rgb(245,219,152)" stroke-width="1" opacity="1.0" d="M 325.5 444.0 Q 339.5 441.5 344.0 448.5 L 344.5 450.0 L 353.0 446.5 L 359.0 444.5 L 363.5 444.0 Q 370.7 445.8 374.0 451.5 L 376.5 458.0 L 377.0 463.5 Q 375.3 471.3 370.5 476.0 Q 360.3 485.8 342.5 488.0 L 325.5 480.0 L 320.0 477.5 L 314.0 471.5 L 310.5 464.0 L 310.0 458.5 L 319.5 446.0 L 325.5 444.0 Z" /></svg>